<svg width="602" height="214" viewBox="0 0 602 214" fill="none" xmlns="http://www.w3.org/2000/svg">
<path d="M341.412 33.8703C350.765 33.8703 358.347 26.2882 358.347 16.9351C358.347 7.58212 350.765 0 341.412 0C332.059 0 324.477 7.58212 324.477 16.9351C324.477 26.2882 332.059 33.8703 341.412 33.8703Z" fill="#8629FF"/>
<path d="M600.919 30.5653H578.999C578.871 30.569 578.746 30.5994 578.631 30.6543C578.516 30.7093 578.413 30.7877 578.33 30.8845C578.247 30.9814 578.185 31.0945 578.148 31.2166C578.111 31.3388 578.101 31.4673 578.116 31.5939L577.082 40.7781C577.084 40.9746 577.031 41.1677 576.927 41.3345C576.823 41.5014 576.674 41.635 576.496 41.7195C576.319 41.8041 576.121 41.8361 575.926 41.8117C575.731 41.7873 575.547 41.7075 575.396 41.5819C571.461 38.4174 567.027 34.8989 562.564 32.971C555.813 30.053 548.558 28.478 541.205 28.3339H540.261C533.172 28.3466 526.148 29.6809 519.549 32.2684C512.607 34.9663 506.171 40.0418 500.944 45.1285C495.598 50.3485 491.336 56.5738 488.404 63.4463C484.009 73.8309 482.854 85.3014 485.092 96.3536C487.33 107.406 492.855 117.524 500.944 125.381C506.171 130.467 512.607 135.537 519.56 138.269C526.459 140.957 533.813 142.281 541.216 142.17C548.569 142.026 555.823 140.453 562.575 137.538C567.072 135.61 571.304 132.086 575.255 128.922C575.402 128.806 575.576 128.731 575.761 128.705C575.946 128.68 576.134 128.704 576.306 128.776C576.478 128.847 576.626 128.964 576.736 129.114C576.846 129.263 576.913 129.44 576.93 129.624L577.779 137.937C577.804 138.192 577.924 138.429 578.114 138.6C578.304 138.772 578.551 138.866 578.808 138.865H600.931C601.203 138.865 601.465 138.756 601.658 138.564C601.851 138.371 601.959 138.109 601.959 137.836V31.6051C601.96 31.4684 601.934 31.3328 601.882 31.2063C601.83 31.0798 601.753 30.9649 601.656 30.8682C601.56 30.7715 601.445 30.6949 601.318 30.6429C601.192 30.591 601.056 30.5646 600.919 30.5653ZM541.941 117.9C535.417 117.882 529.045 115.931 523.628 112.294C518.212 108.657 513.995 103.496 511.51 97.4635C509.025 91.4311 508.383 84.7975 509.665 78.4005C510.948 72.0036 514.097 66.1301 518.715 61.5218C523.334 56.9136 529.214 53.7772 535.614 52.5089C542.014 51.2405 548.646 51.8971 554.673 54.3956C560.7 56.8941 565.851 61.1225 569.476 66.5468C573.102 71.9712 575.038 78.3482 575.042 84.8724C575.025 93.6394 571.53 102.042 565.324 108.234C559.118 114.426 550.708 117.903 541.941 117.9Z" fill="#2E3137"/>
<path d="M455.343 44.1C450.324 39.2099 444.248 34.5897 437.762 31.9986C424.603 26.7238 409.89 26.8774 396.843 32.4258C393.859 33.6961 390.942 35.9443 388.171 37.7935C388.02 37.8932 387.845 37.9516 387.665 37.9628C387.484 37.9741 387.304 37.9378 387.142 37.8576C386.98 37.7774 386.842 37.6561 386.741 37.5058C386.64 37.3555 386.581 37.1815 386.569 37.001L385.962 31.4365C385.924 31.1928 385.8 30.9707 385.612 30.8108C385.424 30.6509 385.185 30.5638 384.939 30.5653H363.496C363.223 30.5668 362.963 30.6756 362.77 30.8682C362.577 31.0608 362.469 31.3216 362.467 31.5939V137.825C362.467 137.96 362.494 138.094 362.545 138.219C362.597 138.343 362.673 138.457 362.768 138.552C362.864 138.648 362.977 138.724 363.102 138.775C363.227 138.827 363.361 138.854 363.496 138.854H386.304C386.578 138.854 386.84 138.745 387.034 138.553C387.228 138.36 387.337 138.098 387.339 137.825C387.339 137.825 387.294 72.9229 387.339 72.8104C389.025 68.1846 391.06 64.6661 394.55 61.333C400.648 55.5121 408.795 52.3294 417.224 52.4748C425.498 52.6265 432.4 56.1114 438.099 62.03C443.765 67.9055 446.866 75.7899 446.721 83.9506V137.853C446.722 137.987 446.749 138.119 446.802 138.242C446.854 138.365 446.93 138.476 447.026 138.569C447.122 138.662 447.235 138.735 447.359 138.784C447.484 138.833 447.616 138.857 447.75 138.854H470.559C471.121 138.854 471.587 138.168 471.587 137.6V82.0621C471.51 74.9726 470.035 67.968 467.245 61.4498C464.456 54.9316 460.408 49.028 455.332 44.0775L455.343 44.1Z" fill="#2E3137"/>
<path d="M57.2692 51.8677C62.2778 51.8591 67.2243 52.9759 71.7432 55.1357C76.2622 57.2954 80.2381 60.443 83.3773 64.3457C83.5414 64.5448 83.7753 64.6738 84.0313 64.7062C84.2872 64.7386 84.5459 64.6719 84.7544 64.5199L102.454 51.9633C102.566 51.8838 102.66 51.7825 102.731 51.6657C102.803 51.5488 102.85 51.4187 102.87 51.2832C102.892 51.1408 102.884 50.9956 102.847 50.8563C102.81 50.7171 102.745 50.5869 102.656 50.4738C97.2778 43.5589 90.396 37.9587 82.5324 34.0975C74.6688 30.2363 66.0296 28.2153 57.2692 28.1878C25.6922 28.1878 0 53.79 0 85.2546C0 116.719 25.6922 142.316 57.2692 142.316C66.029 142.288 74.6677 140.268 82.5311 136.408C90.3945 132.547 97.2766 126.949 102.656 120.035C102.745 119.921 102.81 119.79 102.847 119.65C102.884 119.51 102.891 119.364 102.87 119.22C102.85 119.085 102.803 118.955 102.731 118.838C102.66 118.721 102.566 118.62 102.454 118.54L84.7544 105.984C84.5443 105.835 84.2859 105.771 84.0307 105.804C83.7754 105.838 83.5421 105.966 83.3773 106.164C76.9641 114.1 67.4483 117.9 57.2692 117.9C38.794 117.9 24.8716 103.662 24.8716 85.2546C24.8716 66.8469 38.7828 51.8677 57.2692 51.8677Z" fill="#2E3137"/>
<path d="M323.752 127.73C341.485 119.17 350.107 105.343 350.107 85.4738C350.107 57.865 331.98 28.1428 292.214 28.1428C263.998 28.1428 233.635 46.084 233.635 85.4738C233.635 102.707 239.166 117.124 249.626 127.157C259.979 137.083 274.706 142.333 292.214 142.333C312.218 142.333 325.101 151.18 325.101 166.001C325.101 180.469 308.913 188.979 291.776 188.979C274.638 188.979 259.249 180.093 258.704 163.618C258.699 163.347 258.589 163.089 258.397 162.898C258.205 162.707 257.946 162.598 257.675 162.595H235.035C234.765 162.592 234.506 162.696 234.312 162.883C234.118 163.07 234.006 163.326 234.001 163.596C233.939 177.648 238.407 189.62 246.928 198.146C256.978 208.207 272.474 213.524 291.748 213.524C319.851 213.524 350.107 198.652 350.107 166.001C350.107 153.99 345.549 137.926 323.83 129.619C323.643 129.547 323.48 129.422 323.362 129.259C323.245 129.096 323.177 128.901 323.169 128.7C323.161 128.499 323.211 128.3 323.315 128.128C323.419 127.955 323.57 127.817 323.752 127.73ZM292.186 117.68C272.339 117.68 258.462 104.191 258.462 84.9062C258.462 64.8571 271.699 51.9015 292.186 51.9015C311.336 51.9015 325.236 65.7789 325.236 84.9062C325.23 104.202 311.639 117.68 292.18 117.68H292.186Z" fill="#2E3137"/>
<path d="M163.967 28.1878C132.384 28.1878 106.698 53.79 106.698 85.2546C106.698 116.719 132.384 142.316 163.967 142.316C195.55 142.316 221.236 116.719 221.236 85.2546C221.236 53.79 195.544 28.1878 163.967 28.1878ZM163.967 117.557C155.392 117.564 147.165 114.17 141.09 108.118C135.015 102.066 131.589 93.8519 131.564 85.2771C131.564 67.4764 146.099 51.9071 163.967 51.9071C181.835 51.9071 196.364 67.4764 196.364 85.2771C196.333 93.847 192.905 102.055 186.832 108.102C180.759 114.148 172.537 117.54 163.967 117.534V117.557Z" fill="#2E3137"/>
<path d="M364.153 163.523H381.645V166.013H366.885V174.286H380.105V176.776H366.885V185.258H381.836V187.731H364.153V163.523Z" fill="#2E3137"/>
<path d="M392.184 163.523H400.615C408.225 163.523 413.486 168.75 413.486 175.568V175.635C413.486 182.453 408.225 187.748 400.615 187.748H392.184V163.523ZM400.615 185.219C406.736 185.219 410.648 181.071 410.648 175.703V175.635C410.648 170.273 406.713 166.046 400.615 166.046H394.938V185.219H400.615Z" fill="#2E3137"/>
<path d="M423.716 177.614V163.523H426.448V177.434C426.448 182.661 429.218 185.601 433.856 185.601C438.318 185.601 441.162 182.903 441.162 177.608V163.523H443.894V177.4C443.894 184.46 439.847 188.13 433.777 188.13C427.707 188.13 423.716 184.46 423.716 177.614Z" fill="#2E3137"/>
<path d="M454.152 175.703V175.635C454.152 168.784 459.272 163.107 466.399 163.107C470.795 163.107 473.425 164.664 475.848 166.951L473.982 168.958C471.941 167.019 469.654 165.636 466.366 165.636C461.003 165.636 456.99 169.992 456.99 175.568V175.635C456.99 181.256 461.037 185.635 466.366 185.635C469.687 185.635 471.868 184.359 474.19 182.138L475.988 183.909C473.465 186.466 470.694 188.164 466.298 188.164C459.289 188.164 454.152 182.672 454.152 175.703Z" fill="#2E3137"/>
<path d="M494.559 163.349H497.116L508.155 187.731H505.216L502.377 181.329H489.191L486.319 187.731H483.509L494.559 163.349ZM501.304 178.89L495.801 166.524L490.265 178.89H501.304Z" fill="#2E3137"/>
<path d="M523.106 191.935L525.771 188.057C519.65 187.265 515.288 182.105 515.288 175.692V175.624C515.288 168.772 520.409 163.096 527.536 163.096C531.931 163.096 534.561 164.653 536.984 166.94L535.118 168.947C533.078 167.008 530.79 165.625 527.502 165.625C522.14 165.625 518.127 169.981 518.127 175.557V175.624C518.127 181.245 522.173 185.623 527.502 185.623C530.824 185.623 533.004 184.347 535.326 182.127L537.124 183.898C534.702 186.354 532.066 187.978 527.985 188.119L525.703 193.099L523.106 191.935Z" fill="#2E3137"/>
<path d="M555.707 163.349H558.27L569.309 187.731H566.369L563.559 181.329H550.344L547.455 187.731H544.645L555.707 163.349ZM551.39 160.859C552.081 158.47 553.014 157.329 554.644 157.329C556.162 157.329 558.135 158.678 559.281 158.678C560.181 158.678 560.557 158.194 561.08 157.053L562.766 157.537C562.075 159.926 561.142 161.033 559.517 161.033C557.994 161.033 556.021 159.684 554.88 159.684C553.981 159.684 553.599 160.167 553.076 161.342L551.39 160.859ZM562.463 178.89L556.96 166.524L551.424 178.89H562.463Z" fill="#2E3137"/>
<path d="M576.441 175.703V175.635C576.441 168.958 581.46 163.107 588.807 163.107C596.153 163.107 601.127 168.885 601.127 175.568V175.635C601.127 182.313 596.108 188.164 588.762 188.164C581.415 188.164 576.441 182.386 576.441 175.703ZM598.311 175.703V175.635C598.311 170.133 594.298 165.636 588.756 165.636C583.214 165.636 579.274 170.065 579.274 175.568V175.635C579.274 181.138 583.287 185.635 588.829 185.635C594.371 185.635 598.311 181.205 598.311 175.703Z" fill="#2E3137"/>
</svg>
