<svg width="24" height="41" viewBox="0 0 24 41" fill="none" xmlns="http://www.w3.org/2000/svg">
<path d="M20.276 6.37202C22.0356 6.37202 23.4621 4.9456 23.4621 3.18601C23.4621 1.42643 22.0356 0 20.276 0C18.5165 0 17.09 1.42643 17.09 3.18601C17.09 4.9456 18.5165 6.37202 20.276 6.37202Z" fill="#8629FF"/>
<path d="M16.9536 24.03C20.2898 22.4195 21.9119 19.8182 21.9119 16.0803C21.9119 10.8862 18.5017 5.29456 11.0205 5.29456C5.71219 5.29456 0 8.66985 0 16.0803C0 19.3223 1.0405 22.0346 3.00836 23.9221C4.95613 25.7895 7.72658 26.7771 11.0205 26.7771C14.7838 26.7771 17.2074 28.4415 17.2074 31.2299C17.2074 33.9517 14.162 35.5527 10.938 35.5527C7.71389 35.5527 4.81867 33.8809 4.7161 30.7816C4.71528 30.7306 4.69459 30.682 4.65845 30.646C4.62231 30.6101 4.57356 30.5897 4.52259 30.5891H0.263297C0.212615 30.5886 0.163756 30.608 0.127328 30.6433C0.0908989 30.6785 0.0698425 30.7267 0.0687318 30.7774C0.0571001 33.4209 0.897751 35.6732 2.5008 37.2773C4.39147 39.1701 7.30678 40.1704 10.9327 40.1704C16.2198 40.1704 21.9119 37.3725 21.9119 31.2299C21.9119 28.9702 21.0543 25.9481 16.9684 24.3852C16.9331 24.3718 16.9024 24.3482 16.8803 24.3175C16.8582 24.2868 16.8456 24.2503 16.844 24.2125C16.8424 24.1747 16.852 24.1372 16.8715 24.1048C16.891 24.0723 16.9195 24.0463 16.9536 24.03ZM11.0152 22.1393C7.28141 22.1393 4.67063 19.6015 4.67063 15.9735C4.67063 12.2016 7.16086 9.76428 11.0152 9.76428C14.6178 9.76428 17.2328 12.3751 17.2328 15.9735C17.2317 19.6036 14.6749 22.1393 11.0141 22.1393H11.0152Z" fill="#2E3137"/>
</svg>
